<?xml version="1.0" encoding="UTF-8"?><svg id="Camada_1" xmlns="http://www.w3.org/2000/svg" viewBox="0 0 33.15 38.87"><defs><style>.cls-1{fill:#040405;}.cls-1,.cls-2{stroke-width:0px;}.cls-2{fill:#6a4c99;}</style></defs><path class="cls-2" d="M24.88,0c.42.13.64.47.84.82.36.67.57,1.39.75,2.12.12.49.22.99.3,1.49,0,.03.01.05.03.11.08-.38.14-.73.23-1.07.1-.36.21-.71.38-1.04.07-.14.16-.27.29-.38.15-.12.29-.12.45-.01.15.11.24.27.32.43.27.53.4,1.1.52,1.68.21,1.04.32,2.08.39,3.14.1,1.48.11,2.96.04,4.44-.07,1.4-.2,2.79-.51,4.16-.1.45-.23.89-.44,1.31-.06.13-.13.25-.23.35-.2.21-.41.21-.61,0-.21-.22-.32-.5-.42-.79-.07-.19-.13-.39-.2-.61-.04.3-.07.57-.11.84-.18,1.29-.41,2.57-.87,3.8-.16.42-.34.82-.63,1.16-.07.08-.14.15-.23.21-.25.17-.51.18-.76,0-.25-.18-.42-.42-.56-.69-.37-.68-.58-1.43-.76-2.17-.07-.28-.12-.55-.19-.83-.07.87-.15,1.74-.26,2.6-.16,1.26-.36,2.51-.76,3.72-.11.34-.24.67-.45.97-.03.04-.06.08-.09.12-.29.36-.62.36-.91,0-.26-.33-.41-.72-.54-1.12-.21-.61-.34-1.24-.49-1.87-.01.1-.03.2-.04.31-.15,1.29-.37,2.57-.72,3.83-.2.71-.43,1.4-.8,2.05-.15.26-.31.5-.53.71-.45.43-.97.43-1.42,0-.33-.32-.55-.71-.73-1.12-.45-.99-.72-2.03-.93-3.09-.18-.87-.3-1.75-.4-2.63,0-.02,0-.04-.01-.09-.08.37-.15.71-.24,1.05-.15.59-.31,1.17-.61,1.71-.1.18-.21.34-.38.46-.18.13-.36.13-.54,0-.22-.16-.35-.39-.46-.63-.34-.72-.52-1.49-.68-2.27-.19-.94-.32-1.88-.43-2.83-.06-.54-.1-1.08-.15-1.62,0-.07-.02-.14-.03-.25-.09.4-.17.77-.27,1.14-.16.63-.35,1.25-.65,1.82-.14.26-.29.51-.53.7-.31.24-.6.24-.9-.02-.26-.22-.43-.51-.57-.82-.34-.71-.54-1.46-.72-2.22-.19-.83-.32-1.68-.43-2.53-.02-.12-.03-.24-.06-.37-.06.18-.11.36-.17.53-.11.31-.22.62-.47.86-.18.18-.37.18-.55,0-.25-.24-.36-.55-.47-.86-.27-.79-.41-1.6-.52-2.43-.21-1.62-.29-3.25-.27-4.88.02-1.59.11-3.18.38-4.75.12-.7.26-1.4.55-2.05.08-.18.16-.34.3-.48.21-.22.42-.22.62,0,.22.24.33.55.44.85.16.46.26.93.35,1.41,0,.05.02.1.04.18.11-.62.21-1.2.36-1.77.19-.73.4-1.45.79-2.1.18-.3.39-.57.74-.68h.24c.33.12.54.37.71.66.22.36.38.74.51,1.14.4,1.19.62,2.41.79,3.65.03.24.06.47.09.71.03-.02.04-.04.04-.06.08-.56.18-1.12.31-1.67.14-.6.29-1.2.55-1.76.12-.26.25-.51.47-.69.21-.17.43-.16.63.02.12.1.21.22.29.36.28.49.45,1.02.59,1.56.48,1.88.67,3.8.81,5.72,0,.08,0,.16.01.24.09-.23.14-.47.21-.7.22-.79.47-1.56.9-2.27.18-.29.38-.56.68-.74.31-.19.62-.19.92,0,.23.14.4.33.56.55.43.61.68,1.3.9,2,.12.38.22.77.32,1.16.02-.07.03-.14.03-.22.11-1.58.27-3.15.58-4.71.16-.79.34-1.58.67-2.32.11-.24.23-.46.43-.64.23-.2.45-.2.68,0,.12.11.21.25.29.39.27.48.43,1.01.57,1.54.19.74.33,1.49.44,2.24.03-.03.03-.06.04-.09.11-1.01.27-2.01.5-3,.18-.77.39-1.54.77-2.24.19-.36.42-.69.83-.84h.22Z"/><path class="cls-2" d="M29.91,9.02c.01-.85.07-1.73.3-2.6.06-.21.13-.42.24-.6.21-.36.46-.36.67,0,.17.29.25.61.32.93.23,1.12.26,2.25.17,3.39-.05.62-.13,1.23-.33,1.82-.05.15-.11.3-.21.43-.19.26-.39.26-.57,0-.18-.27-.27-.57-.34-.88-.19-.8-.24-1.62-.25-2.49Z"/><path class="cls-2" d="M3.27,9.11c-.01.87-.06,1.78-.31,2.66-.06.22-.14.44-.28.63-.17.24-.38.25-.55.01-.21-.29-.3-.63-.37-.97-.23-1.07-.26-2.15-.2-3.24.04-.65.11-1.29.31-1.91.06-.2.13-.39.26-.56.18-.24.38-.24.55,0,.2.29.29.62.37.96.18.79.23,1.58.23,2.43Z"/><path class="cls-1" d="M30.69,33.18c.44.01.88.08,1.3.24.88.33,1.16,1.23.74,1.96-.15.27-.39.42-.66.54-.08.04-.17.07-.27.1.14.21.24.44.38.65.13.21.22.44.33.65.11.2.22.41.3.62.12.3.27.59.35.91h-2.5s0-.04-.01-.07c-.2-.61-.47-1.2-.77-1.76-.09-.16-.17-.33-.3-.51v2.34h-2.2c0-.05,0-.11,0-.16,0-1.78,0-3.56,0-5.33,0-.05,0-.11,0-.16.02-.03.05-.04.08-.04,1.09,0,2.18,0,3.27,0ZM29.56,35.21c0,.14,0,.27,0,.41,0,.08.02.1.1.1.23,0,.47,0,.71,0,.3,0,.47-.18.48-.47,0-.33-.15-.52-.46-.53-.24,0-.49,0-.73,0-.06,0-.09.02-.09.08,0,.14,0,.28,0,.42Z"/><path class="cls-1" d="M3.03,33.17c.38.01.75.09,1.1.22.65.25,1.15.68,1.46,1.31.26.51.33,1.06.28,1.63-.07.72-.36,1.32-.89,1.79-.41.37-.91.59-1.46.68-.13.02-.27.04-.4.06H.02c0-1.84,0-3.69,0-5.53,0-.05-.07-.13.03-.17.99,0,1.98,0,2.97,0ZM2.24,36.01c0,.4,0,.81,0,1.21,0,.08.02.11.1.11.13,0,.26,0,.39,0,.43,0,.68-.19.79-.6.12-.44.12-.89.02-1.33-.11-.5-.36-.68-.87-.68-.1,0-.21,0-.31,0-.1,0-.12.03-.12.12,0,.39,0,.79,0,1.18Z"/><path class="cls-1" d="M22.13,38.87s-.02-.09-.02-.13c0-1.81,0-3.62,0-5.44,0-.1.03-.13.13-.13,1.49,0,2.97,0,4.46,0,.09,0,.11.03.11.11,0,.44,0,.88,0,1.32,0,.09-.03.11-.11.11-.74,0-1.49,0-2.23,0-.1,0-.15.02-.14.13.01.13,0,.27,0,.41,0,.1.02.12.12.12.69,0,1.39,0,2.08,0,.11,0,.14.03.13.13,0,.33,0,.66,0,.99,0,.11-.02.14-.14.14-.69,0-1.38,0-2.07,0-.1,0-.13.02-.13.13,0,.15,0,.3,0,.45,0,.1.03.13.13.13.73,0,1.47,0,2.2,0,.11,0,.15.02.15.15,0,.47,0,.93,0,1.4h-4.68Z"/><path class="cls-1" d="M10.89,33.17c.06.03.03.08.03.12,0,.43,0,.87,0,1.3,0,.1-.03.12-.12.12-.74,0-1.48,0-2.22,0-.11,0-.15.02-.14.14.01.13,0,.26,0,.39,0,.1.02.13.12.13.69,0,1.38,0,2.07,0,.11,0,.14.03.14.14,0,.33,0,.66,0,.99,0,.1-.02.14-.13.14-.67,0-1.33,0-2,0q-.2,0-.2.19c0,.11,0,.23,0,.34-.01.13.03.17.16.17.72,0,1.44,0,2.16,0,.13,0,.16.04.16.16,0,.46,0,.92,0,1.39h-4.71s0-.1,0-.15c0-1.79,0-3.58,0-5.37,0-.06-.03-.13.03-.18.02,0,.04,0,.07,0,1.48,0,2.97,0,4.45,0,.04,0,.07,0,.11,0Z"/><path class="cls-1" d="M11.47,38.87s-.02-.09-.02-.13c0-1.81,0-3.62,0-5.43,0-.13.04-.14.15-.14,1.46,0,2.92,0,4.38,0,.13,0,.17.02.17.17-.01.41-.01.82,0,1.24,0,.12-.03.14-.14.14-.74,0-1.48,0-2.22,0-.09,0-.13.02-.12.12,0,.14,0,.27,0,.41,0,.1.02.13.13.13.68,0,1.36,0,2.04,0,.13,0,.17.03.16.16-.01.31,0,.62,0,.92,0,.21.04.18-.18.18-.68,0-1.35,0-2.03,0-.1,0-.13.02-.13.13,0,.15,0,.3,0,.45,0,.1.02.13.13.13.73,0,1.47,0,2.2,0,.12,0,.15.02.15.15,0,.47,0,.93,0,1.4h-4.68Z"/><path class="cls-1" d="M16.61,38.87s.02-.09.02-.13c0-.43,0-.87,0-1.3,0-.07.02-.13.06-.19.58-.9,1.29-1.69,2.1-2.38.05-.04.1-.08.17-.15-.08,0-.12,0-.17,0-.67,0-1.33,0-2,0-.1,0-.13-.02-.13-.13,0-.43,0-.86,0-1.29,0-.09.01-.13.12-.13,1.59,0,3.18,0,4.77,0,.09,0,.11.03.11.12,0,.44,0,.88,0,1.32,0,.08-.02.12-.08.17-.3.25-.6.5-.88.77-.52.5-1.03,1.02-1.45,1.61-.03.04-.06.09-.04.13.02.05.08.03.12.03.72,0,1.45,0,2.17,0,.12,0,.15.02.15.15,0,.47,0,.93,0,1.4h-5.06Z"/><path class="cls-2" d="M27.34,33.21c0,.05,0,.11,0,.16,0,1.78,0,3.56,0,5.33,0,.05,0,.11,0,.16h-.03c0-.46,0-.92,0-1.38,0-1.39,0-2.78,0-4.17,0-.04,0-.07,0-.11Z"/><path class="cls-2" d="M10.89,33.17s-.07,0-.11,0c-1.48,0-2.97,0-4.45,0-.02,0-.04,0-.07,0,.22,0,.43,0,.65,0,1.31,0,2.63,0,3.94,0,.01,0,.02,0,.04,0Z"/><path class="cls-2" d="M30.69,33.18c-1.09,0-2.18,0-3.27,0,.22,0,.44,0,.66,0,.8,0,1.59,0,2.39,0,.07,0,.14,0,.21.01Z"/><path class="cls-2" d="M3.03,33.17c-.99,0-1.98,0-2.97,0,.65,0,1.3,0,1.95,0,.34,0,.68-.02,1.03.01Z"/></svg>