<?xml version="1.0" encoding="utf-8"?>
<!-- Generator: Adobe Illustrator 28.2.0, SVG Export Plug-In . SVG Version: 6.00 Build 0)  -->
<svg version="1.1" id="Camada_1" xmlns="http://www.w3.org/2000/svg" xmlns:xlink="http://www.w3.org/1999/xlink" x="0px" y="0px"
	 viewBox="0 0 50 50" style="enable-background:new 0 0 50 50;" xml:space="preserve">
<style type="text/css">
	.st0{stroke:#FFFFFF;stroke-miterlimit:10;}
	.st1{fill:#6A4C99;}
</style>
<path class="st0" d="M31.6,40.8H18.7c-6.6,0-12-5.4-12-12v-4.3c0-6.6,5.4-12,12-12h12.9c6.6,0,12,5.4,12,12v4.3
	C43.7,35.5,38.2,40.8,31.6,40.8z"/>
<path class="st1" d="M36,5H14c-5,0-9,4-9,9v22c0,5,4,9,9,9h22c5,0,9-4,9-9V14C45,9,41,5,36,5z M38.2,21.3c0.7-0.3,1.4-0.3,2.1-0.1
	c0.3,0.1,0.5,0.2,0.7,0.3v1.2c-0.7-0.5-1.5-0.6-2.2-0.3c-0.7,0.4-1.1,1.2-1.1,2c0,0.9,0.3,1.7,0.9,2.1c0.6,0.4,1.4,0.4,2.3,0.2v1
	c-0.3,0.1-0.7,0.2-1.1,0.2c-0.6,0-1.3,0-2-0.4c-0.6-0.3-1.1-0.9-1.3-1.5s-0.3-1.2-0.3-1.8C36.2,23.2,36.9,21.8,38.2,21.3z M34,18
	c0.6,0,1,0.4,1,1s-0.4,1-1,1s-1-0.4-1-1S33.4,18,34,18z M34.8,21v7h-1.5v-7H34.8z M27,26.2c0.6,0.3,1.4,0.5,2,0.6s1.3,0,1.7-0.2
	c0.2-0.1,0.2-0.3,0.2-0.5s0-0.3-0.1-0.4c-0.2-0.2-0.6-0.4-1.3-0.6c-0.3-0.1-0.7-0.2-1.1-0.4c-0.4-0.2-1.2-0.9-1.1-2
	c0.1-0.6,0.7-1.2,1.6-1.5c1-0.3,2.1-0.2,3.1,0.3v1.2c-0.8-0.4-1.8-0.6-2.7-0.4c-0.2,0.1-0.6,0.3-0.6,0.6c0,0.8,0.9,0.9,1.2,1
	c0.3,0.1,0.7,0.2,1.1,0.4c0.4,0.2,1.2,0.7,1.2,1.8c0,1.1-0.5,1.4-1,1.6c-0.9,0.4-1.7,0.3-2.5,0.2c-0.6-0.1-1.3-0.3-1.9-0.7
	C27,27.2,27,26.2,27,26.2z M20.2,21h1.5v2.4c0,0.8,0,1.7,0,2.4c0,0.4,0.4,0.8,1,0.9c0.3,0,0.5,0,0.9-0.1c0.2-0.1,0.4-0.2,0.6-0.2V21
	h1.5v6.8h-1.5v-0.2c0,0-0.1,0-0.1,0.1c-0.4,0.2-1,0.4-1.5,0.3c-0.5,0-1.1-0.2-1.5-0.6s-0.8-0.9-0.8-1.5c0-0.9,0-1.6,0-2.5L20.2,21z
	 M9.2,21h1.5v0.7c0.4-0.1,0.7-0.3,1.1-0.4c0.5-0.2,1.2-0.2,1.7,0.1c0.2,0.1,0.4,0.3,0.6,0.5c0.6-0.2,1.1-0.4,1.7-0.6
	c0.5-0.2,1.2-0.2,1.7,0.1c0.5,0.3,0.9,0.8,1.1,1.4c0,0.2,0.1,0.3,0.1,0.5v0.3v0.6v1.2v2.5h-1.5v-4.8c0-0.4-0.5-0.8-1-0.7
	c-0.5,0.1-1,0.3-1.5,0.4c0,0.1,0.1,0.3,0.1,0.4v0.3v0.6v1.2v2.5h-1.5V23c0-0.4-0.5-0.8-1-0.7c-0.5,0.1-1,0.2-1.5,0.4V28H9.2V21z
	 M38.8,33.9c-2.2,1.6-4.7,2.6-7.3,3.3s-5.3,0.9-8,0.7s-5.3-0.8-7.8-1.8s-4.8-2.3-6.9-3.9c-0.1-0.1-0.1-0.2,0-0.4
	c0.1-0.1,0.2-0.1,0.3-0.1l0,0c2.2,1.2,4.7,2.1,7.1,2.9c2.4,0.7,4.9,1.2,7.4,1.3s5-0.1,7.4-0.6s4.9-1.2,7.2-2.3l0,0
	c0.3-0.1,0.5,0,0.7,0.2C39,33.5,39,33.8,38.8,33.9z M39.9,36.9c-0.3,0.2-0.6,0.1-0.4-0.2c0.4-1.1,1.3-3.5,0.9-4.1
	c-0.5-0.6-3-0.3-4.1-0.1c-0.3,0-0.3-0.3-0.1-0.5c1-0.7,2.3-1,3.4-1c1.1,0,2.1,0.2,2.3,0.6C42.2,32,41.8,35.3,39.9,36.9z"/>
</svg>
