<?xml version="1.0" encoding="UTF-8"?><svg id="Camada_4" xmlns="http://www.w3.org/2000/svg" viewBox="0 0 348.23 566.18"><defs><style>.cls-1,.cls-2,.cls-3,.cls-4{stroke-miterlimit:10;}.cls-1,.cls-3{stroke:#fff;stroke-width:5px;}.cls-1,.cls-4{fill:none;}.cls-2,.cls-3{fill:#6e4796;}.cls-2,.cls-4{stroke:#6e4696;stroke-width:3.25px;}</style></defs><circle class="cls-1" cx="204.74" cy="166.29" r="140.99"/><circle class="cls-1" cx="204.36" cy="166.29" r="120.24"/><ellipse class="cls-1" cx="106.91" cy="96.09" rx="20.27" ry="19.76"/><ellipse class="cls-1" cx="303.81" cy="96.27" rx="19.73" ry="19.23"/><ellipse class="cls-1" cx="205.14" cy="296.91" rx="10.65" ry="10.38"/><circle class="cls-3" cx="113.01" cy="245.04" r="7.42"/><circle class="cls-3" cx="296.95" cy="242.64" r="7.42"/><circle class="cls-3" cx="260.37" cy="188.36" r="5.25"/><circle class="cls-3" cx="149.27" cy="188.36" r="5.25"/><circle class="cls-3" cx="149.27" cy="115.98" r="5.25"/><circle class="cls-3" cx="260.37" cy="115.98" r="5.25"/><circle class="cls-3" cx="204.36" cy="46.06" r="5.25"/><circle class="cls-1" cx="204.61" cy="258.75" r="27.78"/><path class="cls-1" d="M204.61,258.75c-.08-2.93-1.71-40.05-34.14-60.43-22.32-14.03-50.74-14.81-74.21-2.12-.02,2.65.36,40.17,32.23,61.07,22.65,14.85,52.21,15.41,76.12,1.48Z"/><path class="cls-1" d="M120.43,111.39c37.07.31,70.88,20.95,87.36,53.43,23.5,46.31-1.35,90.79-3.18,93.93-4.71-.09-52.52-1.84-80.36-42.62-20.92-30.64-22.36-71.31-3.82-104.74Z"/><path class="cls-1" d="M204.61,258.75c-38.58-23.73-61.6-66.16-60.01-110.9,2.32-65.11,55.5-99.18,59.75-101.8"/><path class="cls-1" d="M207.02,258.75c.08-2.93,1.71-40.05,34.14-60.43,22.32-14.03,50.74-14.81,74.21-2.12.02,2.65-.36,40.17-32.23,61.07-22.65,14.85-52.21,15.41-76.12,1.48Z"/><path class="cls-1" d="M291.2,111.39c-37.07.31-70.88,20.95-87.36,53.43-23.5,46.31,1.35,90.79,3.18,93.93,4.71-.09,52.52-1.84,80.36-42.62,20.92-30.64,22.36-71.31,3.82-104.74Z"/><path class="cls-1" d="M207.02,258.75c38.58-23.73,61.6-66.16,60.01-110.9-2.32-65.11-55.5-99.18-59.75-101.8"/><circle class="cls-4" cx="204.74" cy="166.29" r="140.99"/><circle class="cls-4" cx="204.36" cy="166.29" r="120.24"/><ellipse class="cls-4" cx="106.91" cy="96.09" rx="20.27" ry="19.76"/><ellipse class="cls-4" cx="303.81" cy="96.27" rx="19.73" ry="19.23"/><ellipse class="cls-4" cx="205.14" cy="296.91" rx="10.65" ry="10.38"/><circle class="cls-2" cx="113.01" cy="245.04" r="7.42"/><circle class="cls-2" cx="296.95" cy="242.64" r="7.42"/><circle class="cls-2" cx="260.37" cy="188.36" r="5.25"/><circle class="cls-2" cx="149.27" cy="188.36" r="5.25"/><circle class="cls-2" cx="149.27" cy="115.98" r="5.25"/><circle class="cls-2" cx="260.37" cy="115.98" r="5.25"/><circle class="cls-2" cx="204.36" cy="46.06" r="5.25"/><circle class="cls-4" cx="204.61" cy="258.75" r="27.78"/><path class="cls-4" d="M204.61,258.75c-.08-2.93-1.71-40.05-34.14-60.43-22.32-14.03-50.74-14.81-74.21-2.12-.02,2.65.36,40.17,32.23,61.07,22.65,14.85,52.21,15.41,76.12,1.48Z"/><path class="cls-4" d="M120.43,111.39c37.07.31,70.88,20.95,87.36,53.43,23.5,46.31-1.35,90.79-3.18,93.93-4.71-.09-52.52-1.84-80.36-42.62-20.92-30.64-22.36-71.31-3.82-104.74Z"/><path class="cls-4" d="M204.61,258.75c-38.58-23.73-61.6-66.16-60.01-110.9,2.32-65.11,55.5-99.18,59.75-101.8"/><path class="cls-4" d="M207.02,258.75c.08-2.93,1.71-40.05,34.14-60.43,22.32-14.03,50.74-14.81,74.21-2.12.02,2.65-.36,40.17-32.23,61.07-22.65,14.85-52.21,15.41-76.12,1.48Z"/><path class="cls-4" d="M291.2,111.39c-37.07.31-70.88,20.95-87.36,53.43-23.5,46.31,1.35,90.79,3.18,93.93,4.71-.09,52.52-1.84,80.36-42.62,20.92-30.64,22.36-71.31,3.82-104.74Z"/><path class="cls-4" d="M207.02,258.75c38.58-23.73,61.6-66.16,60.01-110.9-2.32-65.11-55.5-99.18-59.75-101.8"/></svg>